<?xml version="1.0" encoding="utf-8"?>
<!-- Generator: Adobe Illustrator 25.4.1, SVG Export Plug-In . SVG Version: 6.00 Build 0)  -->
<svg version="1.1" id="Capa_1" xmlns="http://www.w3.org/2000/svg" xmlns:xlink="http://www.w3.org/1999/xlink" x="0px" y="0px"
	 viewBox="0 0 3299.4 1272.2" style="enable-background:new 0 0 3299.4 1272.2;" xml:space="preserve">
<style type="text/css">
	.st0{fill:#FDED10;}
</style>
<g>
	<g>
		<g>
			<g>
				<path class="st0" d="M1240.4,266.7v-99.6h-67.6v-46.2h192v46.2h-67.6v99.6H1240.4z"/>
				<path class="st0" d="M1440.7,216.7v49.8h-56.8V120.7h56.8v49.8h85.4v-49.8h56.9v145.8h-56.9v-49.8L1440.7,216.7L1440.7,216.7z"
					/>
				<path class="st0" d="M1616.1,120.9h170.6v37.3h-113.8v18.7h113.8v33.7h-113.8v18.7h113.8v37.4h-170.6V120.9z"/>
			</g>
		</g>
		<path class="st0" d="M2019.7,603.3h250.7l290.1,540.9h-237.4l-42.7-92.6h-270.8l-42.7,92.6h-237.4L2019.7,603.3z M2070.8,919.6
			h148.5l-74.1-159.8L2070.8,919.6z"/>
		<path class="st0" d="M3264.4,853.2v39.4c0.8,204.4-165.8,263.6-369,264c-203.6-0.4-370.2-59.6-369.4-264v-39.4
			c-0.8-204.8,165.8-263.6,369.4-264C3099,589.2,3264.4,648.8,3264.4,853.2z M3053.6,866.1c1.2-88.1-72-104.2-158.1-105.4
			c-86.5,1.2-159.8,17.3-158.6,105.4v13.3c-1.2,88.5,72,104.6,158.6,105.8c86.1-1.2,159.4-17.3,158.1-105.8V866.1z"/>
		<path class="st0" d="M1822,430.1v14.7c0.3,76.1-61.7,98.1-137.3,98.2c-75.8-0.2-137.8-22.2-137.5-98.2v-14.7
			c-0.3-76.2,61.7-98.1,137.5-98.2C1760.5,331.9,1822,354,1822,430.1z M1743.6,434.9c0.4-32.8-26.8-38.8-58.8-39.2
			c-32.2,0.5-59.4,6.4-59,39.2v4.9c-0.4,32.9,26.8,38.9,59,39.4c32.1-0.5,59.3-6.4,58.8-39.4V434.9z"/>
		<path class="st0" d="M1921.3,538.3V400.9H1828v-63.8h265.1v63.8h-93.3v137.5L1921.3,538.3L1921.3,538.3z"/>
		<path class="st0" d="M2214.5,538.3V400.9h-93.3v-63.8h265.1v63.8H2293v137.5L2214.5,538.3L2214.5,538.3z"/>
		<path class="st0" d="M2412.5,337.1H2648v51.5H2491v25.8H2648v46.6H2491v25.8H2648v51.7h-235.6V337.1z"/>
		<path class="st0" d="M2886,336.8h78.6v201.3h-88.4l-108.1-122.9v122.9h-78.5V336.8h108l88.4,106.6V336.8z"/>
		<path class="st0" d="M3129.5,414.7c56.1,2.8,135.1,6.7,134.9,57.2c0,57.5-65.9,71.1-136.6,71.1c-70.5-0.2-129.1-8.7-136.6-71.1
			h82.2c9,15.6,29.8,19.6,54.4,19.6c24.4,0,54.4-4,54.4-19.6c0-8.8-24.4-10.2-56-11.7c-56.1-2.8-135.1-6.7-134.9-57
			c0-57.5,65.9-71.3,136.6-71.3c70.5,0.5,129.1,8.4,136.6,71.3h-82.2c-9-15.9-29.8-19.6-54.4-19.6c-24.4,0-54.4,3.6-54.4,19.6
			C3073.5,412,3097.9,413.2,3129.5,414.7z"/>
		<path class="st0" d="M1516.7,454.2c8.1-12.3,12.1-26,12.1-41.2c0.6-41.6-34.6-76.5-76.1-76.1h-188.8
			c30.3,62.4,51.5,130.1,61.8,201.3h11.5v-49.1h70.1l37.9,49.1h83.6l-43.9-56.5C1498.1,475.6,1508.7,466.3,1516.7,454.2z
			 M1445.1,425.1c-3.3,3.3-7.3,4.9-12.1,4.9h-95.7v-34.3h95.7c9.6,0,17.2,7.6,17.2,17.2C1450.2,417.7,1448.5,421.7,1445.1,425.1z"/>
		<path class="st0" d="M691.4,752.4c2.3,2.1,5.7,2.8,8.6,1.8c2.6-1.1,18.5-5.3,20.1-7.5c2.4-2.3,3.4-5.9,2.3-9.1L711.6,705l-33.4,11
			C679.4,718.5,689,751.8,691.4,752.4z"/>
		<path class="st0" d="M742.8,728c6.1,3.7,15.1-8.7,19.4-11.3c2.9-2.5,3.3-7.1,0.8-10l-21-25.8l-22.7,19.4
			C720.4,701.3,741.5,728.7,742.8,728z"/>
		<path class="st0" d="M540.5,778.9l-11.4,29.9l32.9,12.4c1-4.7,14.5-31.8,11.3-36.3c-0.9-2.1-2.8-4-5-4.8c-4.7-1.8-12-4.5-16.6-6.3
			C547.3,772.1,542.1,774.4,540.5,778.9z"/>
		<path class="st0" d="M584,787.5c1.8-0.6,3.9-0.9,5.8-0.8c11.2,0.2,26.6,0,28,14.6c0.1,2.2-1,25.2-1.5,27.6
			c62.4,3.3,126.8-3.8,167.8-41.1c-4.1-4.8-9.1-9.9-14.8-14.7c-11.6-9.7-26.5-17.6-42.2-19c-2,1.8-4.4,3.3-7,4.2
			c-9.9,2.7-22.6,10.4-32.5,3.8c-41.9,19.1-38.2,49.5-48,46.3c-13.2-5.4,16.3-39.4,26.8-45.6c-27-8.6-63.2-4.6-89.9,10.5
			C581,776.5,583.8,781.9,584,787.5z"/>
		<path class="st0" d="M715.6,581.3c-13.3,4.9-5.3,25.6,7.8,20.3C736.7,596.8,728.7,576.1,715.6,581.3z"/>
		<path class="st0" d="M602.7,797.5l-13.4-0.7c-0.2,0-0.6,0-0.8,0c-2.6,0.3-4.7,2.4-4.8,5.1l-1.3,24.4l24.2,1.3l1.3-24.4
			C607.9,800.2,605.6,797.6,602.7,797.5z"/>
		<path class="st0" d="M556,601.7c13.1,5.3,21.1-15.4,7.8-20.3C550.7,576.1,542.7,596.8,556,601.7z"/>
		<path class="st0" d="M497.5,442.6c39.9,20.5,27.8,22.9,52.6-13.8l0,0c11.4-16,32.1,8.4,43.5,12.1l1.7-0.5
			c7.2-8.4,34.1-61.2,43.2-68.3c4-2.2,9.1-1.9,12.8,1l12.3,9.5c0.4,0.3,1.1,0.4,1.5,0.3c0.4-0.1,0.9-0.8,1.1-1.1l11.1-37.2l-0.2,0
			l0.1-0.2c-8.8-1-19.4,0.9-23.1,2.3c-4-7.7-16.7-7-27.8-6.7c-24.8,2.8-27.6,8.6-31.6,13.1c-23.9-4.6-66.7,15-69.3,45.3
			c-18,9.5-26.6,26.9-28,43.9l0.2,0.1L497.5,442.6z M549.9,405.7c4.3-12.6,19.4-25.3,34.2-27.8c0.2-5.6,6.1-15.6,9-17.9
			c4.6-4.6,11.7,2.7,7,7.2l0,0c-2.3,2.5-4.3,5.5-5.5,9.4c5.7,0.7,19.5-2.4,19.5,6.7c-0.4,2.8-3,4.6-5.7,4.2
			c-18.5-4.1-42.6,3.9-49,21.6l0,0C557.4,415.1,547.7,411.8,549.9,405.7z"/>
		<path class="st0" d="M443.8,566.8c0,8.3,4.8,15.5,11.7,19.1c6-12.9,10.7-26.4,14-40.3C456.4,542.9,443.7,553.4,443.8,566.8z"/>
		<path class="st0" d="M442.9,609.5c3-4.8,5.8-9.9,8.4-14.9c-31.8-15.6-14.8-65.8,20.3-58.4l0-0.2c1.1-5.5,2-11.1,2.6-16.7
			C419.8,509.4,394.6,583.9,442.9,609.5z"/>
		<path class="st0" d="M512,706.9c5.3,2.8,16.5,15.8,23.4,11.2c2.6-0.3,16.9-22,18.8-24c-10.8-7.6-25.8-24.7-25.8-24.7
			c-1.1,2.2-16.4,22.8-18.2,25.3C507.2,698.5,508.1,704.1,512,706.9z"/>
		<path class="st0" d="M454.9,608.9c-78.5,109.1-36.8,234.6,96.8,264.8c98.8,22.4,238.2,13.7,294.7-81.1
			c29.8-52,18.7-126.9-16.6-174.8c-23.7-37.2-36.4-80.4-36.4-124.8c5.4-68.2-38.3-130.8-103-151.5c-0.8,0.1-1.9,0.6-2.3,1.4
			c-0.1,0.4-12.4,41.4-12.5,41.7c-2.3,7.7-12.1,10.6-18.3,5.7l-12.3-9.5l-0.1-0.1l-0.9-0.2c-4.5,2.2-39.2,68.3-43.6,68.3
			c-10.1,7.9-29.1-11.3-37.6-15c-0.1-0.1-1.8-0.5-1.9-0.5l-1.7,0.4L558,435c-28.3,45.9-24.2,37-68.4,14.9l-0.5,0.2
			c-6.4,25.8-0.8,53.6-6.2,79.7c-2.7,16.8-7.2,33.2-13.5,49C465.4,589.1,460.5,599.3,454.9,608.9z M697.1,858.7
			c-33.6,15.7-106.2,9-120-0.1l0,0c-6.6-3-1.5-12.5,4.8-8.9c17.2,5.9,31.5,8.7,55,9c16.8,0,36.2-2.4,57-9.5
			C699.9,847,703.3,856.7,697.1,858.7z M770,518.5c-3-7.2-10.2-9.3-18.4-9.6c-6.5-0.1-6.3-10.3,0.2-10c21.3-1.1,36.4,19.3,25.8,38
			c9.7,21.9,19.3,49.7,7.6,71.8c-12.3,31.2-54.5,47.4-84.6,32.6c-22.9-8.4-34.7-34.2-41.9-56.5c-22.6-8.1-12.9-24.8-4.8-15.5l0,0
			c3.8,6.5,12.1,7.8,19,4.8c15.4-7,28.3-17.5,44.8-23.7c8.9-3.5,19-5.8,30.5-6c3.9-0.1,7.1-0.8,10.3-2.3
			C766.8,538.1,773.3,527.7,770,518.5z M682.5,664.7c0.2,22.5-29.2,31.2-42.4,13.5c-20.7,25.8-58.1-5.5-35.6-29.9
			c14.4-14,30.8-38,52.3-18.9C664.1,638.1,684,651.4,682.5,664.7z M580.1,479.2c1.1-3.1,4.6-4.1,7.4-2.8
			c33.7,9.9,74.1,11.5,112.2-0.4c2.7-0.8,5.5,0.6,6.3,3.3c3.1,13-56.3,15-62.2,15.1C605.5,492.7,577.2,488.8,580.1,479.2z
			 M493.1,559.6l8.8-22.8c-10.6-18.7,4.5-39.1,25.8-38c2.8-0.1,5.1,2.1,5.2,4.9c0,7.6-11.8,4.4-15.4,7.1c-9.8,3.6-11,15-5.8,22.9
			c1.9,3,4.6,5.6,7.7,7.4c3.7,2.1,7.4,3.1,12,3.2c11.6,0.2,21.6,2.5,30.5,6c18,6.3,31.4,19.4,49,24.9c5.6,1.4,12.2-1.4,14.8-6.1l0,0
			c8-9.3,17.8,7.4-4.8,15.5C595.2,688.6,465.5,649.2,493.1,559.6z M826.7,694.7c2,17.6,1,34-5.6,54c-4.9,14.4-13.2,29.4-26.6,42.9
			l0,0c-70.1,71.1-282.7,67.8-327-29c-17.5-39-21.3-88.5,16.3-111.8c22.5-11.2,45,1.9,61.4,20.4c21.8,26.8,67.3,41.3,96.2,38.9l0,0
			c0,0,0,0,0,0l0,0c31.8,1.7,72.7-11.6,96.2-38.9C771.1,630.6,819.1,643.4,826.7,694.7"/>
		<path class="st0" d="M812.3,545.2c-0.8,0-1.7,0.1-2.5,0.2c3.3,13.6,7.9,27,13.7,39.7C841.8,574.9,833.6,544.5,812.3,545.2z"/>
		<path class="st0" d="M827.7,593.8c2.6,5.1,5.3,10.1,8.3,14.9c42.7-23.4,25.6-90.8-23.7-90.4c-2.5,0-4.8,0.2-7.2,0.6
			c0.7,5.7,1.6,11.3,2.7,16.9C841.4,530.4,857.3,577.8,827.7,593.8z"/>
		<path class="st0" d="M1513.9,603.3h-181.7c0.6,11.7,0.9,23.5,0.9,35.4c0,46.6-4.6,92.1-13.4,136.1h154.8c54.7,0,85.7,44.3,85.7,99
			c0,54.3-31,99-85.7,99h-227.2c-35.4,64-80.6,121.8-133.6,171.4h400.3c148.5,2,258.8-123.5,257.6-270.4
			C1772.6,726.1,1662.4,601.3,1513.9,603.3z"/>
		<path class="st0" d="M639.6,27.3C301.9,27.3,28.2,301,28.2,638.7s273.8,611.4,611.4,611.4S1251,976.4,1251,638.7
			S977.3,27.3,639.6,27.3z M504.7,383.9c4.6-14.7,15.1-28,30.4-38.2c15.2-10.2,34-16.3,50.7-16.6c7.8-6,18.7-10.2,37.8-12.3
			c0.7-0.1,1.3-0.1,2-0.1l1.4,0c2.3-0.1,4.7-0.1,7.2-0.1c4.8,0,15.8,0,25.8,5c3.9-0.5,7.9-0.8,11.7-0.8c2.7,0,5.3,0.2,7.7,0.4
			c2.2-1.1,4.6-1.8,7.1-2.3c1.3-0.2,2.7-0.3,4-0.3c2.4,0,4.8,0.4,7.1,1.1c36.3,11.6,68.3,35.4,89.9,66.9
			c21.7,31.6,32,69.8,29.3,107.5c0,0.4,0,0.8,0,1.2c31,1.7,56.6,22.9,64.5,53.8c7,27.2-1.7,54.4-21.8,71.6
			c13.9,24,23.1,51.9,26.3,80.5c4.2,38.2-2.4,73.9-19.1,103c-0.1,0.1-0.1,0.2-0.2,0.3C853,827,835.3,846,813.3,861.3
			c-13.1,17.1-9.4,55.2-20.7,55.1c-12.3-0.1-2.7-34.2-16-27.7c-13.3,6.5,1.1,30.4-16.7,29.9s-14.2-23.8-33.2-17l0,0
			c-26.7,20.7-8.5,45-21.5,48.7c-18.5,5.3-10.7-22.5-20.9-25.6c-14-4.1-15.8,20.5-18.1,33.6s1.5,18.4-7.3,21.4
			c-6.3,2.2-10.4-16-8.6-26.8s0.9-13.6-10.8-16.3c-11.8-2.7-21.7,19.9-38,21.2c-16.3,1.4-20.8-29.8-36.1-30.3
			c-15.4-0.4-21.2,31.6-30.7,32.1s-11.8-17.6-15.8-41.1c-3.3-19.3-21.5-36.5-27.8-42c-12.7-6.5-24.5-14-35.2-22.7
			c-24.3-19.7-42.1-43.9-52.7-72.1c-19-50.2-12.9-107.3,16.4-160.3c-20.8-17.2-30-44.4-23.3-71.7c7.9-32,34.4-53.7,66.2-54.7
			c0-1.2,0-2.5,0-3.8c0.1-15.2,0.1-30.8,4.2-47c1.3-5.3,4.5-10,8.8-13.1C479.1,411.8,489.4,395.2,504.7,383.9z M747.5,965.2
			c-11-2-4.9-35.8-4.9-35.8l1.2-5.5c0.2-1.1,1.7-1.2,2.1-0.2c1.8,4.7,5,13.3,7.9,21.8C758.2,958,754.7,966.5,747.5,965.2z
			 M479,915.7c-0.8,0.1-1.5,0.2-2.2,0.4c0.2-0.4,0.5-0.8,0.7-1.2C478,915.1,478.5,915.4,479,915.7z M108.5,638.4
			c0.1-195.5,105.8-366.2,263.2-458.3c35.4,60.5,70.9,121.2,106.5,182c-94.9,55.5-158.8,158.4-158.9,276.3
			C248.6,638.4,178.4,638.4,108.5,638.4z M639.6,1169.8c-97.9,0-189.6-26.5-268.4-72.8c22.6-38.7,45.1-77.3,67.6-115.9
			c4.8-4.4,30.5-27.1,32.2-5.4c0,2.1,0,4.1-0.1,6.1c-0.1,1.2-0.2,2.2-0.2,3.2c-1.5,26.3,3,57.5,20.4,55.3c13.1-1.6,12.1-33,7.7-58.3
			c-4.4-25.3,14.9-24.8,25.3-8.8s21.6,10.7,15.2,44.6c-2,10.5-12.7,45.8,5.1,47c11.3,0.8,13.5-9.1,15.9-39.2
			c1.7-21.2,12.2-14.5,21.5-14.5s34,9.8,24.1,43.4c-9.9,33.6,2,42.6,12.8,39.2c5.8-1.8,12-8,7.3-41.4c-5.9-41.8,5.9-45.1,14.1-45.6
			s16.8,6.6,14.5,28.9c-2.9,28.3,23.6,21.4,24,8.5c0.8-24.8-11.6-52.3,8.2-60.6c19.8-8.3,22,35.8,38,38.5c16,2.8,22.6,0,39.1-22
			c16.5-22,21.4-34.9,25.3-11.6c0.9,5.3,0.9,21,10.1,21.4c6.2,0.2,8.7-13.1,8.1-23.6c-0.2-4.5-0.2-8.9,0-13c4.2-17.4,33,15,33,15
			s-0.1-0.2-0.1-0.5c21.4,37.1,42.8,74.1,64.2,111.1C826.7,1144,736.1,1169.8,639.6,1169.8z M1154.6,640.1
			c-64.9,0.1-129.9,0-194.8,0c0-0.5,0-0.9,0-1.4c0-119-65-222.8-161.4-278c35.5-61,70.8-121.8,106-182.4
			c159.1,91.7,266.2,263.6,266.2,460.4c0,0.2,0,0.5,0,0.8C1165.1,639.8,1159.8,640.1,1154.6,640.1z"/>
	</g>
</g>
</svg>
