<?xml version="1.0" encoding="utf-8"?>
<!-- Generator: Adobe Illustrator 25.4.1, SVG Export Plug-In . SVG Version: 6.00 Build 0)  -->
<svg version="1.1" id="Capa_1" xmlns="http://www.w3.org/2000/svg" xmlns:xlink="http://www.w3.org/1999/xlink" x="0px" y="0px"
	 viewBox="0 0 3840 3840" style="enable-background:new 0 0 3840 3840;" xml:space="preserve">
<style type="text/css">
	.st0{fill:#FDED10;}
</style>
<path class="st0" d="M2046.48,2197.96c5.57,5.1,13.81,6.93,20.99,4.5c6.32-2.75,45.03-13.01,49.08-18.32
	c5.91-5.56,8.26-14.34,5.6-22.12l-26.64-79.68l-81.53,26.93C2017.03,2115.23,2040.41,2196.57,2046.48,2197.96z"/>
<path class="st0" d="M2171.67,2138.28c14.88,8.94,36.88-21.1,47.39-27.54c7.19-6.07,8.1-17.21,1.86-24.38
	c0,0-51.28-62.88-51.28-62.88l-55.27,47.41C2117.17,2073.32,2168.5,2140.01,2171.67,2138.28z"/>
<path class="st0" d="M1678.23,2262.53l-27.91,72.92l80.31,30.38c2.31-11.55,35.45-77.59,27.65-88.58
	c-2.24-5.03-6.88-9.84-12.1-11.74c-11.4-4.31-29.15-11.03-40.55-15.34C1694.89,2245.98,1682.23,2251.62,1678.23,2262.53z"/>
<path class="st0" d="M1784.38,2283.6c4.4-1.43,9.43-2.32,14.08-1.98c27.27,0.5,64.95,0,68.24,35.62c0.34,5.33-2.37,61.61-3.66,67.29
	c152.3,7.95,309.35-9.2,409.34-100.3c-10.09-11.71-22.2-24.18-36.17-35.76c-28.19-23.71-64.78-42.89-102.9-46.42
	c-4.79,4.51-10.75,8.01-16.98,10.11c-24.07,6.5-55.21,25.42-79.32,9.23c-102.32,46.51-93.22,120.83-117.02,112.95
	c-32.29-13.13,39.7-96.08,65.27-111.2c-65.98-20.89-154.21-11.31-219.33,25.51C1776.98,2256.74,1783.93,2269.87,1784.38,2283.6z"/>
<path class="st0" d="M2105.31,1780.6c-32.35,11.93-12.88,62.47,19.11,49.6C2156.78,1818.26,2137.31,1767.72,2105.31,1780.6z"/>
<path class="st0" d="M1829.94,2307.86l-32.78-1.74c-0.44-0.05-1.55,0.02-2,0.04c-6.37,0.63-11.45,5.85-11.78,12.35l-3.31,59.54
	l58.95,3.12l3.3-59.52C1842.75,2314.48,1837.16,2308.21,1829.94,2307.86z"/>
<path class="st0" d="M1716.09,1830.19c32,12.87,51.47-37.68,19.1-49.6C1703.2,1767.73,1683.73,1818.27,1716.09,1830.19z"/>
<path class="st0" d="M1573.26,1442.01c97.32,50.07,67.69,55.86,128.39-33.7v0c27.78-38.96,78.25,20.55,106.09,29.44l4.04-1.14
	c17.69-20.47,83.13-149.21,105.33-166.76c9.89-5.43,22.13-4.66,31.28,2.42l30.11,23.31c0.88,0.69,2.62,0.97,3.68,0.65
	c1-0.14,2.13-1.93,2.62-2.67l27.17-90.86l-0.58-0.03l0.15-0.49c-21.57-2.57-47.37,2.09-56.41,5.65
	c-9.86-18.71-40.62-17.03-67.83-16.31c-60.45,6.75-67.36,20.97-76.99,32.03c-58.32-11.25-162.67,36.64-169.06,110.49
	c-43.96,23.14-64.94,65.62-68.33,107.14l0.42,0.22L1573.26,1442.01z M1701.15,1352.05c10.57-30.77,47.23-61.82,83.31-67.91
	c0.52-13.59,14.91-38.04,21.98-43.66c11.22-11.22,28.63,6.62,17.12,17.56l0,0c-5.63,6.12-10.41,13.34-13.32,22.88
	c13.85,1.7,47.7-5.93,47.53,16.26c-1.03,6.7-7.3,11.29-13.99,10.26c-45.1-10-103.83,9.52-119.42,52.59h0
	C1719.38,1375.08,1695.8,1367.01,1701.15,1352.05z"/>
<path class="st0" d="M1442.42,1745.02c-0.02,20.32,11.6,37.84,28.46,46.6c14.53-31.52,25.98-64.46,34.12-98.24
	C1473.08,1686.84,1442.11,1712.4,1442.42,1745.02z"/>
<path class="st0" d="M1440.2,1849.22c7.21-11.77,14.22-24.09,20.44-36.4c-77.68-37.97-36.2-160.58,49.48-142.46l0.11-0.49
	c2.66-13.45,4.82-27.01,6.42-40.65C1383.77,1605.06,1322.37,1786.92,1440.2,1849.22z"/>
<path class="st0" d="M1608.6,2086.82c13.03,6.79,40.15,38.44,57.02,27.45c6.4-0.85,41.15-53.75,45.8-58.66
	c-26.36-18.45-62.95-60.3-62.95-60.3c-2.73,5.3-40.03,55.52-44.49,61.81C1597.03,2066.48,1599.19,2080.07,1608.6,2086.82z"/>
<path class="st0" d="M1469.51,1847.92c-191.55,266.17-89.7,572.28,236.16,646.14c241.07,54.57,581.07,33.45,719.07-197.75
	c72.82-126.94,45.71-309.56-40.38-426.31c-57.72-90.75-88.74-196.12-88.87-304.34c13.14-166.43-93.45-319.19-251.29-369.63
	c-1.96,0.35-4.63,1.4-5.59,3.36c-0.28,0.88-30.23,100.94-30.5,101.75c-5.57,18.67-29.57,25.88-44.63,13.83
	c0,0-30.11-23.31-30.11-23.31l-0.35-0.23l-2.09-0.61c-11.02,5.3-95.58,166.54-106.37,166.72c-24.63,19.34-71.05-27.66-91.73-36.65
	c-0.19-0.22-4.36-1.22-4.6-1.34l-4.09,1.02l-3.18,2.92c-69.12,112.06-58.94,90.15-166.93,36.34l-1.14,0.39
	c-15.71,63.01-1.82,130.73-15.03,194.42c-6.56,40.92-17.6,81.06-32.85,119.57C1494.99,1799.55,1483.1,1824.31,1469.51,1847.92z
	 M2060.2,2457.35c-81.96,38.33-258.99,21.92-292.89-0.28l0,0c-16.01-7.36-3.57-30.5,11.69-21.76c41.9,14.31,76.86,21.1,134.27,22.04
	c40.94,0,88.44-5.8,138.93-23.19C2067.06,2428.75,2075.4,2452.39,2060.2,2457.35z M2238.1,1627.34
	c-7.39-17.53-24.9-22.69-45.01-23.48c-15.89-0.16-15.3-25.17,0.62-24.52c51.89-2.75,88.73,47.14,62.85,92.68
	c23.61,53.41,47,121.15,18.42,175.24c-30.04,76.03-133.08,115.75-206.38,79.51c-55.81-20.59-84.67-83.41-102.23-137.95
	c-55.03-19.75-31.37-60.57-11.69-37.89l0.01,0c9.3,15.98,29.55,19.07,46.29,11.81c37.67-17.04,69-42.69,109.26-57.75
	c21.81-8.41,46.33-14.24,74.54-14.62c9.5-0.16,17.28-2.08,25.05-5.69C2230.42,1675.11,2246.28,1649.75,2238.1,1627.34z
	 M2024.69,1983.94c0.44,54.82-71.15,76.24-103.41,32.99c-50.49,62.94-141.7-13.52-86.86-72.94c35.11-34.23,75.14-92.64,127.54-46.19
	C1979.85,1919.06,2028.33,1951.63,2024.69,1983.94z M1774.77,1531.43c2.59-7.55,11.13-10,18.03-6.74
	c82.32,24.24,180.72,28.03,273.71-0.91c6.46-2.03,13.35,1.56,15.38,8.02c7.62,31.8-137.44,36.63-151.75,36.84
	C1836.84,1564.33,1767.88,1554.72,1774.77,1531.43z M1562.53,1727.6l21.42-55.59c-25.83-45.53,10.93-95.44,62.85-92.67
	c6.77-0.18,12.4,5.18,12.57,11.95c-0.13,18.6-28.76,10.67-37.52,17.37c-23.83,8.69-26.89,36.69-14.03,55.76
	c4.71,7.32,11.2,13.69,18.75,18.08c9.02,5.09,18.01,7.66,29.16,7.87c28.2,0.38,52.73,6.21,74.54,14.62
	c43.95,15.41,76.53,47.23,119.55,60.76c13.57,3.45,29.73-3.35,36-14.82l0.01,0c19.62-22.67,43.41,18.09-11.69,37.89
	C1811.79,2042.23,1495.23,1946.26,1562.53,1727.6z M2376.44,2057.2c4.93,43.03,2.37,82.96-13.57,131.7
	c-11.99,35.08-32.25,71.7-64.91,104.74h0c-171.08,173.45-689.56,165.51-797.89-70.65c-42.58-95.08-51.87-215.84,39.9-272.67
	c54.79-27.24,109.85,4.62,149.76,49.81c53.17,65.31,164.21,100.71,234.59,95.01v0c0.02,0,0.05,0,0.06,0v0
	c77.67,4.05,177.27-28.22,234.59-95.01C2240.78,1900.66,2357.88,1932.03,2376.44,2057.2"/>
<path class="st0" d="M2341.38,1692.4c-2.05,0-4.02,0.27-6,0.5c7.98,33.26,19.19,65.77,33.4,96.87
	C2413.38,1764.85,2393.32,1690.65,2341.38,1692.4z"/>
<path class="st0" d="M2379,1811.1c6.25,12.42,13.05,24.57,20.29,36.43c104.26-57.04,62.55-221.41-57.91-220.55
	c-6,0-11.84,0.6-17.6,1.47c1.62,13.89,3.78,27.67,6.5,41.31C2412.43,1656.21,2451.03,1772,2379,1811.1z"/>
<path class="st0" d="M1920,428.83c-823.82,0-1491.67,667.84-1491.67,1491.67c0,823.83,667.84,1491.67,1491.67,1491.67
	c823.83,0,1491.67-667.84,1491.67-1491.67C3411.67,1096.67,2743.82,428.83,1920,428.83z M1590.82,1299.01
	c11.27-35.85,36.87-68.19,74.24-93.12c37.11-24.75,83.08-39.79,123.69-40.57c18.98-14.63,45.55-24.85,92.27-30.08
	c1.6-0.18,3.2-0.29,4.8-0.33l3.39-0.09c5.6-0.16,11.39-0.31,17.45-0.31c11.68,0,38.64,0,63.01,12.28
	c9.43-1.26,19.25-1.97,28.53-1.97c6.53,0,12.84,0.37,18.84,1.03c5.4-2.6,11.22-4.5,17.31-5.58c3.27-0.58,6.57-0.87,9.86-0.87
	c5.83,0,11.65,0.9,17.24,2.69c88.67,28.34,166.53,86.31,219.24,163.25c52.84,77.12,78.17,170.2,71.45,262.37
	c0,0.98,0.06,1.97,0.07,2.95c75.53,4.17,138.07,55.82,157.35,131.22c16.98,66.42-4.2,132.74-53.25,174.75
	c33.98,58.47,56.39,126.67,64.12,196.46c10.35,93.33-5.76,180.26-46.57,251.39c-0.16,0.28-0.33,0.56-0.5,0.85
	c-32.61,54.63-75.99,100.89-129.57,138.34c-31.85,41.63-22.86,134.74-50.57,134.52c-29.96-0.24-6.55-83.38-38.98-67.62
	c-32.44,15.76,2.78,74.14-40.78,72.99c-43.56-1.14-34.74-58.19-81.02-41.41c0,0,0,0-0.01,0c-65.02,50.37-20.76,109.75-52.49,118.77
	c-45.1,12.82-26.02-54.94-51.08-62.34c-34.05-10.06-38.6,50.08-44.11,82.04c-5.51,31.96,3.55,44.89-17.8,52.3
	c-15.48,5.37-25.3-39.01-20.9-65.46c4.41-26.45,2.28-33.09-26.37-39.7c-28.65-6.61-52.9,48.49-92.57,51.8
	c-39.67,3.31-50.7-72.74-88.17-73.84c-37.47-1.1-51.8,77.14-74.94,78.25s-28.65-42.98-38.57-100.29
	c-8.16-47.15-52.42-89.11-67.86-102.51c-31.04-15.75-59.71-34.2-85.8-55.3c-59.36-48.03-102.65-107.21-128.67-175.89
	c-46.39-122.47-31.46-261.76,39.93-391.14c-50.75-41.92-73.28-108.33-56.74-175.01c19.37-78.08,83.89-131.06,161.46-133.32
	c0.02-3.06,0.03-6.12,0.05-9.22c0.15-36.99,0.3-75.23,10.15-114.77c3.25-13.03,10.96-24.27,21.52-31.99
	C1528.46,1367.04,1553.47,1326.61,1590.82,1299.01z M2183.28,2717.1c-26.93-4.81-11.9-87.39-11.9-87.39l2.82-13.33
	c0.55-2.6,4.16-2.88,5.09-0.39c4.26,11.37,12.09,32.5,19.34,53.18C2209.27,2699.56,2200.82,2720.23,2183.28,2717.1z
	 M1528.12,2596.29c-1.92,0.3-3.73,0.61-5.46,0.93c0.59-1.02,1.19-2.04,1.78-3.06C1525.66,2594.89,1526.9,2595.58,1528.12,2596.29z
	 M624.31,1919.74c0.3-476.84,258.22-893.35,642.08-1118.07c86.4,147.62,173.02,295.6,259.93,444.08
	c-231.58,135.41-387.3,386.43-387.57,673.99C966.02,1919.74,794.96,1919.74,624.31,1919.74z M1920,3216.2
	c-238.92,0-462.69-64.74-654.85-177.52c55.09-94.44,110.01-188.58,164.93-282.74c11.7-10.81,74.42-66.06,78.52-13.16
	c0.05,5.05,0,10.05-0.19,14.95c-0.25,2.93-0.37,5.48-0.4,7.73c-3.69,64.07,7.25,140.33,49.79,135.02
	c31.98-4,29.54-80.57,18.8-142.34c-10.74-61.77,36.26-60.43,61.77-21.49c25.51,38.94,52.63,26.01,37.09,108.9
	c-4.79,25.58-30.93,111.64,12.48,114.64c27.49,1.9,32.97-22.07,38.88-95.58c4.16-51.69,29.71-35.3,52.54-35.3
	c22.83,0,82.99,24.01,58.82,105.92c-24.17,81.91,4.76,103.98,31.31,95.68c14.17-4.43,29.23-19.49,17.72-100.99
	c-14.41-101.96,14.35-110.01,34.49-111.35c20.14-1.34,41.1,16.02,35.5,70.6c-7.09,69.1,57.58,52.27,58.62,20.78
	c1.99-60.41-28.32-127.64,20.02-147.78c48.34-20.14,53.71,87.28,92.65,94c38.94,6.71,55.06,0,95.34-53.71s52.19-85.2,61.77-28.2
	c2.17,12.94,2.17,51.25,24.56,52.15c15.04,0.61,21.18-32,19.75-57.52c-0.62-11-0.54-21.62,0.03-31.82
	c10.28-42.37,80.41,36.6,80.41,36.6s-0.12-0.46-0.34-1.27c52.27,90.45,104.51,180.84,156.68,271.1
	C2376.38,3153.33,2155.54,3216.2,1920,3216.2z M3176.42,1923.92c-158.41,0.12-316.82-0.08-475.23,0.08c0-1.17,0.09-2.32,0.09-3.5
	c0-290.41-158.57-543.62-393.74-678.28c86.53-148.83,172.74-297.12,258.71-444.99c388.17,223.8,649.45,643.02,649.45,1123.26
	c0,0.62-0.02,1.23-0.02,1.84C3202.11,1923.18,3189.22,1923.91,3176.42,1923.92z"/>
</svg>
